<?xml version="1.0" encoding="utf-8"?>
<!-- Generator: Adobe Illustrator 21.0.0, SVG Export Plug-In . SVG Version: 6.00 Build 0)  -->
<!DOCTYPE svg PUBLIC "-//W3C//DTD SVG 1.1//EN" "http://www.w3.org/Graphics/SVG/1.1/DTD/svg11.dtd">
<svg version="1.1" id="Laag_1" xmlns="http://www.w3.org/2000/svg" xmlns:xlink="http://www.w3.org/1999/xlink" x="0px" y="0px"
	 width="1275px" height="850px" viewBox="0 0 1275 850" style="enable-background:new 0 0 1275 850;" xml:space="preserve">
<style type="text/css">
	.st0{fill:none;}
	.st1{fill:#FFB511;}
	.st2{fill:#0F1941;}
	.st3{fill:#E74536;}
</style>
<rect class="st0" width="1275" height="850"/>
<path class="st1" d="M954.5,458.6"/>
<path class="st1" d="M954.5,458.6"/>
<path class="st1" d="M954.5,479.8"/>
<path class="st1" d="M676.1,529.1"/>
<path class="st2" d="M937.5,662.2l-61.7-107.8H684.1L861.2,707l0,0c11.3,11.3,28.3,16.3,44.8,11.7
	C930.3,711.8,944.4,686.5,937.5,662.2z"/>
<path class="st1" d="M997.4,517.4h-17.5H831.7v-5.1c0-139.7-75.6-261.7-188.2-327.4c1.2,0,2.5,0,3.7,0
	c-168,0-306.8,124.6-329.3,286.3l-101.8,40.4c-8.1,3.6-13.3,11.6-13.3,20.5c0,12.4,10,22.4,22.4,22.4h15h147.4h609.8
	c10.2,0,18.5-8.3,18.5-18.5v0C1015.8,525.7,1007.6,517.4,997.4,517.4z"/>
<path class="st3" d="M831.7,512.3v5.1h148.2c0-183.7-148.9-332.6-332.6-332.6c-1.3,0-2.5,0-3.8,0C756,250.5,831.7,372.5,831.7,512.3
	z"/>
<g>
</g>
<g>
</g>
<g>
</g>
<g>
</g>
<g>
</g>
<g>
</g>
<g>
</g>
<g>
</g>
<g>
</g>
<g>
</g>
<g>
</g>
<g>
</g>
<g>
</g>
<g>
</g>
<g>
</g>
</svg>
